<?xml version="1.0" encoding="UTF-8"?>
<!DOCTYPE svg PUBLIC "-//W3C//DTD SVG 1.1//EN" "http://www.w3.org/Graphics/SVG/1.1/DTD/svg11.dtd">
<!-- Creator: CorelDRAW 2020 (64-Bit) -->
<svg xmlns="http://www.w3.org/2000/svg" xml:space="preserve" width="178.858mm" height="124.531mm" version="1.1" style="shape-rendering:geometricPrecision; text-rendering:geometricPrecision; image-rendering:optimizeQuality; fill-rule:evenodd; clip-rule:evenodd"
viewBox="0 0 17885.82 12453.06"
 xmlns:xlink="http://www.w3.org/1999/xlink"
 xmlns:xodm="http://www.corel.com/coreldraw/odm/2003">
 <defs>
  <style type="text/css">
   <![CDATA[
    .fil1 {fill:#FEFEFE;fill-rule:nonzero}
    .fil0 {fill:#404040;fill-rule:nonzero}
   ]]>
  </style>
 </defs>
 <g id="Ebene_x0020_1">
  <metadata id="CorelCorpID_0Corel-Layer"/>
  <path class="fil0" d="M14458.2 -23.63l-2385.27 586.31 -21.41 72.39 -24.38 81.67c-0.53,0.07 -4.83,0.67 -4.83,0.67 -0.78,0.11 -93.8,11.43 -108.44,13.23l37.25 -89.89 -1638.94 199.82 -32.73 59.51 -468.39 855.17 -346.53 -155.75 -0.04 -0.11 -0.07 0 -298.59 -134.19 -0.07 -0.04 -0.14 0 -149.22 -67.06 -1873.33 316.69 -29.38 62.33 -107.28 228.5 -163.87 18.83 32.21 -87.91 -1179.12 135.43 -30.87 27.52c-168.88,149.3 -350.27,357.19 -549.03,625.26 -2.29,3.11 -4.41,6.11 -6.7,9.21l-74.37 -33.44 -0.07 0 -298.69 -134.23 0 -0.14 -0.29 0 -149.08 -66.96 -1639.02 199.81 -32.69 59.48 -222.46 406.33 -261.34 -117.44 -0.05 -0.14 -0.14 0 -149.2 -67.06 -1210.02 135.71 -30.12 24.45c-84.21,68.33 -178.46,157.97 -285.53,270.65 -106.26,111.16 -209.41,238.44 -310.34,381.6 -99.02,137.05 -177.02,254.6 -234.29,354.61l-7.98 13.9 -4.42 15.45c-40.54,142.52 -66.67,310.34 -80.6,505.5l0 2.08c-10.2,185.84 -11.98,275.8 -5.12,435.43l4.36 104.56 149.34 67.14 0 0.03 0.27 0.04 149.01 66.92 149.41 67.17 0.05 0 149.42 67.17 0.09 0 149.2 67.06 0 0.04 0.13 0 149.08 67.02 0 0.07 0.37 0.04 149.15 67.03 0.02 0 90.71 40.74c-1.59,64.81 -4.48,128.84 -9.83,184.19l-986.54 114.3 -257.44 945.51 745.13 343.79 -284.44 -7.27 -438.01 1011.73 298.48 134.16 -0.05 0.07 0.27 0 184.17 82.73 0 2499.71 298.41 134.16 0.14 0 1344.01 604.03 0 0.24 0.29 -0.1 597.09 268.39 0 0.15 0.29 -0.08 597.09 268.36 0 0.29 0.29 -0.11 298.62 134.23 899.48 -221.23 0 -470.85 124.95 56.13 0 0.28 0.5 0 298.41 134.16 944.03 24.2 202.43 -467.61 200.62 90.14 0 0.29 0.28 -0.11 298.63 134.23 899.48 -220.95 0 -705.38 105.44 47.45 0 0.15 0.15 -0.11 597.18 268.36 0 0.27 0.28 -0.03 298.63 134.24 886.28 -218.2 0 -1416.58 303.35 136.31 0.53 0.39 0.25 -0.03 149.22 67.03 0.15 0.14 0.07 0 447.32 201.04 0.35 0.29 0.32 -0.04 596.62 268.18 0.53 0.36 0.24 -0.05 298.63 134.21 1114.21 -198.8 190.01 -604.17 387.42 174.1 0.25 0.29 0.28 -0.04 298.62 134.24 1405.72 -266.53 183.94 -477.66 308.01 138.43 0 0.13 0.28 -0.02 298.63 134.19 899.19 -220.94 0 -414.37 133.17 59.83 0.11 0.28 0.39 0 298.48 134.12 898.67 -29.81 279.36 -839.82 0 -0.24 -149.19 -67.07 0.04 -0.28c0,0 -0.53,0 -0.67,0l-447.53 -201.12 -0.11 0 -9.35 -4.13 -155.68 -290.79 -182.81 -175.08 453.18 -370.07 2.05 -59.72c7.3,-202.25 -7.77,-617.54 -52.75,-857.71 -43.39,-231.57 -112.71,-346.99 -184.43,-485.92l-44.31 -85.51 -148.97 -66.96 -0.29 -0.35 -0.53 0.07 -447.6 -201.19 -0.04 0 -5.53 -2.5 174.48 -42.87 0 -2828.36 642.76 -158.08 259.29 -869.07 -1792.07 -805.46 -0.07 0 -895.99 -402.73 -0.07 0 -448.49 -201.68z"/>
  <path class="fil1" d="M1960.61 8674.1l0 -1486.57 635.54 -156.24 0 2684.89 409.54 -19.8 -318.55 735.65 -726.53 -18.59 0 -1329.79 -687.67 169.08 0 1466.32 -635.73 156.28 0 -2710.14 -409.55 19.75 318.55 -735.61 726.73 18.52 0 1375.31 687.67 -169.06zm5657.34 -2966.19l-318.74 617.22 409.72 -19.75 0 2237.03 389.29 336.83 973.81 -173.67 192.12 -611.26 -932.57 173.54 0 -2538.17 -713.63 -21.77zm4559.86 -5035.16l-171.98 576.09 795.98 -195.69 0 2828.57 622.61 -153.07 0 -2828.57 669.65 -164.68 171.98 -576.05 -2088.24 513.4zm-4944.71 1160.46l-288.15 613.34 465.21 -89.18 0 2780.98 635.43 -156.21 0 -2734.69 294.64 -42.83c87.66,214.42 131.48,471.52 131.48,771.52l-557.6 548.26 0 77.92 451.38 254.5 333.76 873.62 712.89 -23.67 189.41 -569.63 -338.85 17.56 -343.71 -641.91 -275.55 -263.74 522.57 -426.58c6.77,-187.04 -10.27,-612.84 -50.7,-828.78 -40.46,-215.86 -97.79,-305.93 -171.97,-449.51l-1710.24 289.03zm-2990.81 4914.3l0 3251.21 -635.67 156.27 0 -2710.18 -409.56 19.83 318.53 -735.65 726.7 18.52zm-1211.7 -3925.78l-548.46 1001.4 0 1980.03 394.4 454.13 1259.08 -238.72 212.23 -550.72 -1185.14 225.67 0 -912.18 821.07 -201.86 0 -531.6 -821.07 201.86 0 -909.81 983.1 -122.27 232.38 -560.36 -1347.59 164.43zm-2851.46 4000.61l182.02 -668.66 1011.26 -117.15c33.72,-170.11 35.38,-556.48 5.06,-710.82l-1132.61 -212.02c-6.71,-156.77 -5.06,-237.8 5.07,-422.31 13.49,-188.7 38.74,-348.29 75.85,-478.79 53.92,-94.15 129.77,-208.84 227.53,-344.13 97.75,-138.64 197.19,-260.84 298.33,-366.61 104.48,-109.96 195.5,-196.39 273.01,-259.25l945.53 -106.08 -293.26 675.88 -773.6 63.79c-53.94,144.7 -70.79,509.51 -50.58,646.11l1087.11 182.7c26.97,155.19 37.08,246.77 30.33,454.06 -6.74,203.87 -28.68,391.3 -65.73,562.22 -222.49,388.41 -466.87,708.06 -733.17,958.92l-1092.15 142.14zm5572.84 -4624.14c-158.47,140.05 -335.25,341.84 -530.76,605.65 -195.51,260.42 -338.81,486.23 -429.79,677.15 -67.45,343.54 -101.17,633.28 -101.17,869.21 0,546.07 69.18,1004.29 207.39,1374.81l1410.52 -210.22 222.63 -762.56 -1251.33 225.71c-98.61,-400.02 -58.95,-1107.62 -58.95,-1390.2 0,-171.9 151.09,-330.44 184.78,-409.54 33.73,-82.44 210.22,-178.04 260.81,-220.8l717.97 -65.19 293.27 -800.28 -925.37 106.26zm4643.19 -1234.87l-548.47 1001.43 0 1980.01 394.41 454.13 1259.1 -238.73 212.23 -550.68 -1185.16 225.67 0 -912.18 821.09 -201.86 0 -531.64 -821.09 201.86 0 -909.77 983.12 -122.31 232.34 -560.32 -1347.57 164.39zm-5511.45 5506.37l-171.98 576.09 795.94 -195.69 0 2828.57 622.65 -153.07 0 -2828.57 669.64 -164.64 171.98 -576.09 -2088.23 513.4zm5370.51 -1523.29l-548.46 1001.39 0 1980.04 394.4 454.09 1259.07 -238.69 212.26 -550.68 -1185.15 225.67 0 -912.18 821.09 -201.86 0 -531.63 -821.09 201.86 0 -909.78 983.08 -122.31 232.38 -560.32 -1347.58 164.4zm1947.34 -365.41l-288.15 613.34 465.24 -89.18 0 2780.98 635.39 -156.25 0 -2734.66 294.64 -42.83c87.66,214.42 131.51,471.53 131.51,771.53l-557.63 548.25 0 77.93 451.38 254.49 333.76 873.62 712.89 -23.67 189.41 -569.63 -338.84 17.57 -343.75 -641.91 -275.52 -263.74 522.57 -426.58c6.77,-187.04 -10.27,-612.88 -50.69,-828.78 -40.43,-215.9 -97.83,-305.93 -171.95,-449.51l-1710.26 289.03z"/>
 </g>
</svg>
