<?xml version="1.0" encoding="UTF-8"?>
<!DOCTYPE svg PUBLIC "-//W3C//DTD SVG 1.1//EN" "http://www.w3.org/Graphics/SVG/1.1/DTD/svg11.dtd">
<!-- Creator: CorelDRAW 2020 (64-Bit) -->
<svg xmlns="http://www.w3.org/2000/svg" xml:space="preserve" width="46.8312mm" height="46.6588mm" version="1.1" style="shape-rendering:geometricPrecision; text-rendering:geometricPrecision; image-rendering:optimizeQuality; fill-rule:evenodd; clip-rule:evenodd"
viewBox="0 0 11531.3 11488.85"
 xmlns:xlink="http://www.w3.org/1999/xlink"
 xmlns:xodm="http://www.corel.com/coreldraw/odm/2003">
 <defs>
  <style type="text/css">
   <![CDATA[
    .fil0 {fill:#383633;fill-rule:nonzero}
   ]]>
  </style>
 </defs>
 <g id="Ebene_x0020_1">
  <metadata id="CorelCorpID_0Corel-Layer"/>
  <g id="_2214802265536">
   <path class="fil0" d="M3174.86 1501.32c-956.07,0 -1731.1,775.01 -1731.1,1731.1 0,956.09 775.04,1731.1 1731.1,1731.1 956.09,0 1731.13,-775.01 1731.13,-1731.1 0,-956.09 -775.04,-1731.1 -1731.13,-1731.1zm0 2448.72c-396.48,0 -717.62,-321.13 -717.62,-717.62 0,-396.26 321.13,-717.62 717.62,-717.62 396.51,0 717.62,321.36 717.62,717.62 0,396.48 -321.11,717.62 -717.62,717.62z"/>
   <path class="fil0" d="M11032.83 9616.9c-6.38,-7.21 -10.42,-16.13 -17.11,-23.05l-4338.91 -3996.36 -306.31 306.39 -685.46 -685.14c463.55,-568.97 716.26,-1273.73 716.26,-2017.57 0,-854.96 -333.15,-1658.96 -937.85,-2263.65 -604.62,-604.62 -1408.39,-937.53 -2263.55,-937.53 -855.26,0 -1659.18,332.9 -2263.65,937.53 -1248.47,1248.24 -1248.17,3279.28 0,4527.53 604.47,604.6 1408.39,937.53 2263.65,937.53 743.84,0 1448.6,-252.39 2017.32,-715.94l685.38 685.14 -332.61 332.61 4022.58 4312.62c45.85,45.87 101.15,78.33 159.31,104.57 184.87,222.72 460.06,367.28 772.06,367.28 556.41,0 1007.36,-450.92 1007.36,-1007.33 0,-369.64 -201.44,-689.4 -498.47,-864.62zm-9628.99 -4619.74c-990.17,-990.39 -990.17,-2601.58 0,-3591.75 479.98,-479.68 1117.59,-743.91 1796.06,-743.91 678.44,0 1316.06,264.23 1795.74,743.91 479.61,479.68 743.86,1117.62 743.86,1795.76 0,678.44 -264.26,1316.06 -743.86,1795.99 -479.68,479.66 -1117.3,743.62 -1795.74,743.62 -678.47,0 -1316.08,-263.96 -1796.06,-743.62z"/>
  </g>
 </g>
</svg>
