<?xml version="1.0" encoding="UTF-8"?>
<!DOCTYPE svg PUBLIC "-//W3C//DTD SVG 1.1//EN" "http://www.w3.org/Graphics/SVG/1.1/DTD/svg11.dtd">
<!-- Creator: CorelDRAW 2020 (64-Bit) -->
<svg xmlns="http://www.w3.org/2000/svg" xml:space="preserve" width="48.6919mm" height="30.6678mm" version="1.1" style="shape-rendering:geometricPrecision; text-rendering:geometricPrecision; image-rendering:optimizeQuality; fill-rule:evenodd; clip-rule:evenodd"
viewBox="0 0 2475.99 1559.46"
 xmlns:xlink="http://www.w3.org/1999/xlink"
 xmlns:xodm="http://www.corel.com/coreldraw/odm/2003">
 <defs>
  <style type="text/css">
   <![CDATA[
    .fil0 {fill:#383633;fill-rule:nonzero}
   ]]>
  </style>
 </defs>
 <g id="Ebene_x0020_1">
  <metadata id="CorelCorpID_0Corel-Layer"/>
  <g id="_2214955056960">
   <path class="fil0" d="M2174.83 289.09l-117.89 -0.16c-72.02,-0.11 -141.6,-14.85 -196.17,-41.55l-420.93 -205.87c-112.63,-55.07 -278.99,-55.4 -392.28,-0.72l-432.06 208.53c-54.75,26.42 -124.27,40.88 -196.13,40.77l-116.77 -0.17c-167.03,-0.22 -302.6,76.68 -302.6,171.62l0 0c0,83.88 105.99,360.44 245.93,422.93 16.17,-275.17 394.16,-445.3 995.09,-445.3 599.2,0 976.81,169.08 995.03,442.86 137,-67.53 239.94,-337.78 239.94,-420.49l0 -0.81c0,-94.63 -134.73,-171.41 -301.15,-171.64z"/>
   <path class="fil0" d="M419.42 1009.29c-36.62,0 -55.29,5.77 -64.72,19.99l0 45.27 -9.03 0c0,48.96 10.69,65.25 73.75,65.25 60.49,0 148.53,-19.55 250.51,-42.21 33.64,-7.43 69.1,-15.3 106.05,-23.04 -37.01,-7.76 -72.41,-15.63 -106.09,-23.1 -101.93,-22.61 -189.97,-42.16 -250.46,-42.16z"/>
   <path class="fil0" d="M2044.71 1249.34c-72.5,0 -165.97,-20.77 -274.22,-44.77 -151.02,-33.52 -339,-75.28 -538.44,-75.28 -199.44,0 -387.35,41.77 -538.38,75.28 -108.24,24 -201.76,44.77 -274.28,44.77 -41.05,0 -73.01,-7.14 -98.28,-18.89 0.07,3.99 0.11,7.92 0.11,11.53 0,135.05 421.38,317.49 941.13,317.49 519.76,0 941.13,-182.43 941.13,-317.49 0,-17.84 1.33,-41 1.27,-67.59 -24.43,42.65 -71.85,74.95 -160.06,74.95z"/>
   <path class="fil0" d="M2044.71 1009.29c-60.49,0 -148.57,19.55 -250.51,42.16 -33.64,7.47 -69.08,15.34 -106.03,23.1 36.95,7.74 72.4,15.61 106.03,23.04 101.93,22.66 190.02,42.21 250.51,42.21 63.05,-0.05 73.75,-16.29 73.75,-65.25 0,-48.98 -10.69,-65.27 -73.75,-65.27z"/>
   <path class="fil0" d="M2127.12 897.55c-6.05,-208.85 -360.44,-348.85 -886.08,-348.85 -525.62,0 -880.01,140 -886.06,348.85l57.29 0c-0.72,0.89 -1.34,1.84 -2.06,2.72 3.16,-0.11 5.93,-0.48 9.2,-0.48 72.52,0 165.97,20.71 274.22,44.75 151.02,33.52 339,75.24 538.44,75.24 199.44,0 387.35,-41.72 538.38,-75.24 108.24,-24.04 201.76,-44.75 274.29,-44.75 24.15,0 45.04,2.54 63.38,6.97 -2.78,-3.05 -5.28,-6.16 -8.21,-9.2l27.21 0zm-895.04 30.7c-78.33,0 -141.83,-64.04 -141.83,-143.05 0,-79.06 63.49,-143.1 141.83,-143.1 78.33,0 141.82,64.04 141.82,143.1 0,79.01 -63.49,143.05 -141.82,143.05z"/>
  </g>
 </g>
</svg>
