<?xml version="1.0" encoding="UTF-8"?>
<!DOCTYPE svg PUBLIC "-//W3C//DTD SVG 1.1//EN" "http://www.w3.org/Graphics/SVG/1.1/DTD/svg11.dtd">
<!-- Creator: CorelDRAW 2020 (64-Bit) -->
<svg xmlns="http://www.w3.org/2000/svg" xml:space="preserve" width="46.4162mm" height="35.7272mm" version="1.1" style="shape-rendering:geometricPrecision; text-rendering:geometricPrecision; image-rendering:optimizeQuality; fill-rule:evenodd; clip-rule:evenodd"
viewBox="0 0 2255.15 1735.82"
 xmlns:xlink="http://www.w3.org/1999/xlink"
 xmlns:xodm="http://www.corel.com/coreldraw/odm/2003">
 <defs>
  <style type="text/css">
   <![CDATA[
    .fil0 {fill:#383633;fill-rule:nonzero}
   ]]>
  </style>
 </defs>
 <g id="Ebene_x0020_1">
  <metadata id="CorelCorpID_0Corel-Layer"/>
  <g id="_2214978205744">
   <path class="fil0" d="M2254.2 931.92c1.11,0 -0.21,-16.94 -2.75,-21.65 8.15,-14.35 -1.11,-35.2 -29.21,-43.14l-155.1 -45.52 -971.63 204.53c-90.4,19.12 -190.87,15.66 -277.26,-8.67l-631.06 -178.07 -149.43 31.45c-32.35,6.87 -43.79,33.34 -33.82,49.06 -0.9,1.59 -1.8,12.02 -2.18,12.02l0.04 0 0 528.64 -0.04 0c-3.02,0 6.83,26.41 31.18,33.3l786.1 221.36c86.38,24.35 186.85,27.2 277.21,8.09l1121.17 -236.65c22.07,-4.66 34.19,-26.09 36.77,-26.09l-32.02 0 0 -528.64 32.02 0z"/>
   <path class="fil0" d="M2222.23 655.68l-155.04 -43.72 -971.69 205.42c-90.4,19.1 -190.87,16.14 -277.2,-8.21l-631.06 -177.85 -149.47 31.6c-47.54,10.01 -51.03,47.16 -5.61,59.97l786.15 221.57c86.34,24.35 186.81,27.31 277.2,8.21l1121.17 -236.98c47.54,-10.05 50.97,-47.22 5.57,-60.02z"/>
   <path class="fil0" d="M32.15 309.46l786.1 221.59c86.38,24.29 186.85,27.31 277.26,8.21l1121.12 -237.04c47.54,-10 51.01,-47.16 5.61,-59.97l-786.16 -221.57c-86.34,-24.35 -186.79,-27.31 -277.21,-8.21l-1121.16 236.98c-47.48,10.05 -50.97,47.22 -5.55,60.02z"/>
   <path class="fil0" d="M2223.01 449.63l-155.05 -43.73 -971.67 205.43c-90.42,19.11 -190.87,16.14 -277.21,-8.19l-631.06 -177.87 -149.49 31.6c-47.53,10.01 -51.03,47.18 -5.61,59.97l786.16 221.59c86.34,24.34 186.79,27.31 277.21,8.19l1121.17 -236.97c47.47,-10.07 50.97,-47.22 5.55,-60.03z"/>
  </g>
 </g>
</svg>
